<svg width="29" height="31" viewBox="0 0 29 31" fill="none" xmlns="http://www.w3.org/2000/svg">
<path d="M2.40039 23.7559C1.15625 23.0449 0.486328 22.3203 0.486328 20.3652V9.53711C0.486328 8.11523 1.00586 7.22656 2.16797 6.57031L11.834 1.07422C13.4883 0.117188 15.0879 0.117188 16.7422 1.07422L26.4219 6.57031C27.5703 7.22656 28.0898 8.11523 28.0898 9.53711V20.3652C28.0898 22.3203 27.4336 23.0449 26.1758 23.7559L15.4297 29.8535C14.6504 30.291 13.9258 30.291 13.1602 29.8535L2.40039 23.7559ZM14.2949 14.1445L24.8496 8.16992L15.8398 3.0293C14.7734 2.41406 13.8027 2.42773 12.75 3.0293L3.74023 8.16992L14.2949 14.1445ZM3.63086 21.9512L13.2148 27.4062V16.0586L2.56445 9.97461V20.2969C2.56445 21.0488 2.83789 21.5137 3.63086 21.9512ZM24.959 21.9512C25.7383 21.5137 26.0117 21.0488 26.0117 20.2969V9.97461L15.3613 16.0586V27.4062L24.959 21.9512Z" fill="currentColor"/>
</svg>
