<svg width="336" height="131" viewBox="0 0 336 131" fill="none" xmlns="http://www.w3.org/2000/svg">
<path fill-rule="evenodd" clip-rule="evenodd" d="M61.875 19.8404C78.4 21.3904 91.3583 26.1874 92.7917 40.464C93.7667 50.8737 89.1417 57.0657 81.5 60.5573C93.8417 63.486 101.35 70.3633 99.8 85.6189C97.9083 104.733 82.8417 109.701 61.3 110.746L61.3333 130.488L48.65 130.505L48.6167 110.762C47.2333 110.746 45.7833 110.762 44.2917 110.786C42.3083 110.811 40.2583 110.835 38.2 110.778L38.2333 130.521L25.5667 130.529L25.5333 110.786L0.166667 110.313L2.3 95.8899C2.3 95.8899 11.8833 96.0857 11.7083 95.9878C15.2333 95.9715 16.2833 93.5975 16.5417 92.0311L16.475 60.3941L16.575 37.8779C16.1917 35.5284 14.5083 32.7057 9.325 32.6241C9.6 32.3794 0.0333349 32.6323 0.0333349 32.6323L0 19.4162L26 19.3754L25.9667 0.0407912L39.0583 0.0244724L39.0917 19.3591C41.625 19.2938 44.1167 19.3183 46.6417 19.3346L49.1417 19.3509L49.1 0.0163149L61.85 0L61.875 19.8404ZM37.5417 56.2254L38.175 56.2417C45.8917 56.568 68.7583 57.5062 68.7833 44.3554C68.75 31.8572 49.2917 32.2651 40.2583 32.4446C39.1833 32.4691 38.2583 32.4936 37.5333 32.4854V56.2254H37.5417ZM38.6167 94.9762L37.5 94.9354V71.1954C38.3083 71.2117 39.3167 71.1954 40.4917 71.1791C51.175 71.0567 75.0333 70.7712 74.925 83.3672C75.0417 96.3957 48.1083 95.3433 38.6167 94.9762Z" fill="#DD7B00"/>
<path d="M335.688 100.29V118H277.033V100.29H335.688ZM284.45 7.80469V118H261.745V7.80469H284.45ZM328.044 52.6851V69.9409H277.033V52.6851H328.044ZM335.612 7.80469V25.5903H277.033V7.80469H335.612Z" fill="#DD7B00"/>
<g clip-path="url(#clip0_585_1761)">
<path d="M164.469 8.90391L151.043 16.5029V29.6029V42.7285H153.006H154.969V30.7287V18.7545L166.38 12.3068C172.661 8.77598 177.921 5.88476 178.079 5.88476C178.262 5.88476 183.47 8.75039 189.646 12.2557L200.9 18.601L201.031 30.6008L201.162 42.6006H203.125H205.088V29.5773V16.5285L191.609 8.90391C184.203 4.70781 178.079 1.30488 178 1.30488C177.921 1.30488 171.823 4.7334 164.469 8.90391Z" fill="#DD7B00"/>
<path d="M176.561 9.49237C175.854 9.95292 175.226 10.3367 175.173 10.3623C175.147 10.3879 175.54 11.1299 176.063 11.9998C176.77 13.1767 177.136 13.5349 177.45 13.4326C177.686 13.3303 177.922 13.2535 178 13.2279C178.079 13.2023 180.591 14.5584 183.575 16.2215C186.558 17.8846 189.045 19.215 189.071 19.1639C189.699 18.3707 190.824 16.2471 190.746 16.0168C190.641 15.7609 179.152 9.15975 178.236 8.85272C178.026 8.77596 177.293 9.05741 176.561 9.49237Z" fill="#DD7B00"/>
<path d="M170.881 12.6906L169.416 13.5861L170.358 15.1724C170.881 16.0423 171.326 16.7843 171.352 16.8355C171.431 16.989 174.598 15.0701 174.598 14.8398C174.598 14.4048 172.923 11.7695 172.635 11.7951C172.504 11.7951 171.693 12.2045 170.881 12.6906Z" fill="#DD7B00"/>
<path d="M165.621 15.7098C164.809 16.1703 164.077 16.6053 163.972 16.682C163.789 16.8867 165.49 19.957 165.778 19.957C166.013 19.957 168.186 18.7801 168.761 18.3451C169.023 18.166 168.918 17.8334 168.395 16.9123C167.086 14.6863 167.296 14.7887 165.621 15.7098Z" fill="#DD7B00"/>
<path d="M158.214 20.6223C157.664 21.5689 157.324 22.3877 157.481 22.4389C157.612 22.49 161.852 24.8439 166.877 27.7096L176.037 32.8779L176.116 43.5729L176.168 54.2422H178.131H180.094V43.5473V32.8779L180.827 32.4686C187.972 28.4516 198.571 22.4389 198.65 22.3621C198.807 22.2342 198.336 21.2363 197.524 19.9826L196.87 18.9592L187.762 24.102C182.763 26.942 178.471 29.2959 178.236 29.3471C178.026 29.4238 176.43 28.6562 174.702 27.684C173.001 26.7117 169.232 24.5881 166.354 22.9762C163.475 21.3387 160.674 19.7779 160.151 19.4709L159.209 18.908L158.214 20.6223Z" fill="#DD7B00"/>
<path d="M190.693 38.8138C189.83 39.2999 189.071 39.7605 189.018 39.8117C188.966 39.8628 189.83 41.4492 190.929 43.3425L192.944 46.7966L192.159 47.8457C191.06 49.3296 190.641 51.3253 191.034 53.1675C191.4 54.9074 193.834 59.1546 195.195 60.4083C196.687 61.8156 197.76 62.2505 200.063 62.3785C201.712 62.4808 202.157 62.5832 202.445 62.9925C202.785 63.4275 202.732 63.6322 202.104 64.5533C201.136 65.9861 200.77 67.1119 200.77 68.6982C200.77 70.3869 201.084 71.2312 202.68 73.9433C204.486 76.988 204.957 77.5765 206.554 78.4208C207.731 79.0349 208.307 79.1884 209.93 79.214L211.893 79.2652L213.777 82.4378C214.824 84.1521 215.714 85.6873 215.792 85.8408C215.871 86.0455 219.352 84.5103 219.352 84.2544C219.352 84.2033 218.462 82.6425 217.363 80.7748C215.426 77.4742 215.4 77.3974 215.818 76.7578C217.546 74.1736 217.834 71.4359 216.656 69.1332C213.646 63.274 211.657 61.5853 207.836 61.6109C206.213 61.6365 206.056 61.5853 205.768 60.9968C205.533 60.4595 205.585 60.2292 206.239 59.3593C206.658 58.7964 207.155 57.7474 207.313 57.031C207.836 54.8818 207.496 53.3978 205.716 50.3019C203.23 46.0035 201.895 45.0056 198.336 44.8265L196.32 44.7242L195.221 42.882C194.645 41.8841 193.729 40.349 193.206 39.5046L192.238 37.9183L190.693 38.8138ZM200.22 49.2785C201.188 50.0716 203.648 54.3701 203.648 55.2656C203.648 55.6238 203.544 56.0587 203.413 56.2634C203.23 56.5449 203.073 56.4425 202.759 55.8029C202.523 55.3679 202.209 55.0097 202.026 55.0097C201.529 55.0097 198.938 56.5705 198.938 56.8775C198.938 57.0566 199.121 57.4148 199.33 57.6707C199.88 58.3871 199.827 58.6429 199.147 58.4638C198.126 58.1568 197.367 57.2869 196.032 54.8818C194.829 52.6814 194.41 51.1462 194.986 50.8136C195.116 50.7369 195.457 51.0695 195.771 51.5556L196.294 52.4255L197.995 51.4789L199.696 50.5322L199.199 49.6878C198.911 49.2273 198.676 48.7923 198.676 48.7156C198.676 48.383 199.513 48.69 200.22 49.2785ZM210.008 66.0117C210.715 66.5746 212.992 70.2333 213.332 71.4103C213.463 71.8197 213.463 72.4593 213.358 72.8431L213.175 73.5339L212.573 72.5873L211.971 71.6406L211.16 72.1011C210.689 72.3826 209.956 72.7919 209.485 73.0478L208.647 73.5083L209.171 74.5318L209.694 75.5296L209.092 75.3505C208.098 75.0435 207.365 74.2248 205.978 71.8708C205.009 70.2078 204.695 69.4146 204.695 68.5958C204.695 67.3166 204.983 67.2654 205.611 68.4423L206.109 69.3123L207.574 68.5191C209.511 67.4445 209.511 67.4701 209.04 66.5746C208.804 66.1396 208.621 65.7302 208.621 65.6279C208.621 65.3208 209.38 65.5255 210.008 66.0117Z" fill="#DD7B00"/>
<path d="M161.747 41.4492L159.811 44.7754H157.952C156.513 44.7754 155.832 44.9033 154.812 45.415C153.006 46.285 152.116 47.2828 150.336 50.4043L148.818 53.0652V55.4191C148.818 57.5939 148.871 57.8242 149.682 59.1035C150.415 60.2549 150.52 60.5875 150.284 61.048C150.048 61.5854 149.839 61.6365 148.19 61.6365C146.149 61.6365 144.683 62.1227 143.244 63.3252C142.249 64.1184 139.684 68.2633 139.082 70.0031C138.35 72.1268 138.899 75.1203 140.365 76.6555C140.862 77.1928 140.836 77.2184 138.873 80.5189C137.8 82.3355 136.91 83.9475 136.91 84.101C136.91 84.3824 139.554 85.9688 140.025 85.9688C140.155 85.9688 141.15 84.4336 142.223 82.5658L144.186 79.1885L145.495 79.2652C147.327 79.3932 149.394 78.7535 150.729 77.6533C152.09 76.502 154.838 71.8197 155.23 69.9775C155.623 68.0842 154.969 65.5768 153.712 64.1439C153.398 63.7857 153.372 63.5811 153.608 63.0693C153.896 62.4809 154.053 62.4297 155.702 62.4297C157.193 62.4297 157.795 62.3018 159.104 61.6365C161.041 60.7154 161.564 60.1014 163.501 56.8008C164.757 54.6004 164.993 53.9863 165.123 52.5791C165.28 50.609 164.862 48.9715 163.867 47.6922L163.161 46.7455L165.071 43.4705C166.144 41.6539 167.008 40.0676 167.008 39.9396C167.008 39.6838 164.364 38.123 163.92 38.123C163.789 38.123 162.794 39.607 161.747 41.4492ZM157.01 49.5344C156.408 50.5578 156.382 50.5322 158.397 51.6324L159.863 52.4512L160.36 51.5557C161.014 50.3787 161.25 50.4299 161.25 51.7348C161.25 53.142 158.79 57.466 157.638 58.1312C156.408 58.8477 156.146 58.6941 156.801 57.6451C157.246 56.9031 157.298 56.6729 157.01 56.5193C156.827 56.3914 156.068 55.9564 155.309 55.5471L153.974 54.7795L153.346 55.7262L152.744 56.6729L152.666 55.4703C152.587 54.4469 152.77 53.9863 153.948 51.9395C154.812 50.4299 155.623 49.4064 156.12 49.0994C157.377 48.3574 157.638 48.4854 157.01 49.5344ZM147.143 66.4211C146.829 66.9328 146.594 67.3934 146.646 67.4189C146.698 67.4445 147.457 67.8795 148.347 68.3912L149.97 69.3123L150.546 68.3656C151.095 67.4445 151.121 67.4189 151.331 68.0074C151.671 68.8773 151.383 69.6961 149.918 72.2547C149.08 73.6875 148.295 74.6854 147.798 74.9924C146.541 75.7344 146.28 75.6064 146.908 74.5574C147.536 73.534 147.51 73.534 145.521 72.4338L144.055 71.6406L143.584 72.5105C142.982 73.5852 142.668 73.4828 142.668 72.2291C142.668 70.9498 145.128 66.6258 146.201 65.9605C147.484 65.2186 147.771 65.3721 147.143 66.4211Z" fill="#DD7B00"/>
<path d="M168.186 54.5236C167.662 55.3936 167.348 56.1867 167.453 56.2891C167.898 56.6984 177.791 62.1738 178.052 62.1738C178.393 62.1738 187.893 56.8775 188.443 56.3914C188.757 56.11 188.678 55.8285 187.945 54.5748C187.474 53.7561 187.056 53.0396 187.003 52.9885C186.977 52.9373 185.014 53.9863 182.659 55.2912C180.329 56.6217 178.314 57.7219 178.209 57.773C178.105 57.8242 176.063 56.7496 173.682 55.4191C171.3 54.0631 169.311 52.9629 169.232 52.9629C169.18 52.9629 168.709 53.6793 168.186 54.5236Z" fill="#DD7B00"/>
<path d="M122.594 77.2184L111 83.7939V99.0432V114.318L124.426 121.891C131.833 126.062 137.957 129.465 138.062 129.465C138.428 129.465 162.82 115.597 162.82 115.393C162.82 115.034 161.145 112.322 160.936 112.322C160.831 112.322 155.859 115.06 149.944 118.412C144.003 121.789 138.873 124.655 138.559 124.808C138.062 125.064 136.701 124.373 126.52 118.616L115.057 112.143L114.978 99.0943L114.926 86.0199L125.656 79.9561L136.387 73.8922L135.497 72.3314C134.973 71.4615 134.476 70.7195 134.371 70.6939C134.267 70.6684 128.954 73.6107 122.594 77.2184Z" fill="#DD7B00"/>
<path d="M220.686 72.4593C219.901 73.841 219.849 74.0457 220.215 74.3271C220.425 74.4806 225.214 77.1927 230.841 80.3654L241.074 86.0966V99.1455V112.22L229.794 118.591C223.565 122.122 218.331 125.013 218.121 125.064C217.938 125.115 212.756 122.326 206.606 118.847C200.482 115.393 195.378 112.655 195.273 112.757C195.169 112.86 194.724 113.602 194.253 114.42L193.441 115.853L196.373 117.516C197.995 118.437 203.518 121.559 208.621 124.45L217.912 129.695L219.666 128.748C220.608 128.237 226.706 124.808 233.196 121.149L245 114.497L244.921 99.171L244.869 83.8195L233.38 77.3462C227.046 73.7898 221.812 70.873 221.733 70.873C221.629 70.873 221.157 71.5894 220.686 72.4593Z" fill="#DD7B00"/>
<path d="M153.555 79.4699C153.006 80.391 152.613 81.1842 152.666 81.2098C152.718 81.2609 154.655 82.3611 157.01 83.666L161.25 86.0455V90.3439V94.668H163.213H165.176V89.2949V83.9219L164.207 83.3078C163.658 82.9752 161.616 81.7982 159.68 80.7236C157.743 79.6234 155.78 78.5232 155.335 78.2674L154.55 77.8068L153.555 79.4699Z" fill="#DD7B00"/>
<path d="M195.98 81.0306L190.824 83.973L190.877 89.1413L190.955 94.2841L192.839 94.3609L194.75 94.4376L194.802 90.2927L194.881 86.1478L199.068 83.7683C201.371 82.4634 203.282 81.2865 203.334 81.1329C203.465 80.7747 201.764 78.037 201.424 78.0626C201.293 78.0626 198.833 79.4187 195.98 81.0306Z" fill="#DD7B00"/>
<path d="M118.223 87.8109C117.412 89.2437 117.334 89.4484 117.7 89.7298C117.936 89.8833 122.175 92.314 127.122 95.1029L136.125 100.169V110.864V121.559L138.036 121.482L139.92 121.405L139.998 110.787L140.051 100.143L149.446 94.847L158.868 89.5251L157.926 87.9388C157.403 87.0689 156.958 86.3269 156.932 86.2757C156.905 86.2501 152.666 88.5784 147.51 91.4697C142.38 94.3864 138.009 96.6892 137.8 96.6124C137.617 96.5357 133.586 94.3097 128.875 91.6488C124.138 88.9878 120.029 86.6851 119.715 86.506C119.192 86.2501 119.087 86.3525 118.223 87.8109Z" fill="#DD7B00"/>
<path d="M198.074 88.0668L197.132 89.6787L198.623 90.4975C199.435 90.958 203.648 93.3119 207.967 95.7682L215.818 100.195L215.897 110.864L215.949 121.533H217.912H219.875V110.941V100.348L223.487 98.3012C225.45 97.1754 229.663 94.7959 232.83 93.0049C235.997 91.2139 238.64 89.7043 238.693 89.6787C238.745 89.6275 238.326 88.8855 237.803 88.0156C237.148 86.9666 236.703 86.5061 236.442 86.5828C236.259 86.6596 232.071 88.9879 227.151 91.7768C222.257 94.54 218.121 96.7916 217.938 96.7916C217.781 96.7916 213.541 94.4633 208.516 91.6488C203.491 88.8088 199.304 86.4805 199.173 86.4805C199.068 86.4805 198.571 87.1969 198.074 88.0668Z" fill="#DD7B00"/>
<path d="M117.543 95.8193V97.7383H119.506H121.469V95.8193V93.9004H119.506H117.543V95.8193Z" fill="#DD7B00"/>
<path d="M234.531 96.5869V98.5059H236.494H238.457V96.5869V94.668H236.494H234.531V96.5869Z" fill="#DD7B00"/>
<path d="M167.139 97.4567C164.155 97.6358 162.977 98.0964 161.512 99.5548C160.988 100.092 160.334 100.988 160.072 101.55L159.601 102.6H155.44H151.305V104.518V106.437H155.44H159.549L160.308 107.845C161.093 109.354 162.402 110.506 164.05 111.222C164.836 111.58 165.804 111.683 168.709 111.657C171.98 111.657 172.53 111.606 173.734 111.068C175.304 110.378 177.005 108.74 177.503 107.384C177.791 106.565 177.948 106.437 178.654 106.437C179.335 106.437 179.544 106.591 179.937 107.358C180.748 109.022 181.69 109.994 183.313 110.787C184.831 111.529 185.014 111.555 188.469 111.555C192.866 111.555 194.07 111.222 195.823 109.508C196.477 108.842 197.184 107.896 197.393 107.384L197.734 106.437H201.869H206.004V104.518V102.6H201.947H197.891L197.263 101.371C196.53 99.9642 194.959 98.4546 193.52 97.8149C192.735 97.4567 191.766 97.38 188.73 97.3544C185.093 97.3544 184.883 97.38 183.444 98.0708C181.795 98.864 180.277 100.399 179.832 101.73C179.57 102.446 179.387 102.6 178.759 102.6C178.131 102.6 177.921 102.42 177.372 101.371C176.142 99.0431 173.996 97.6358 171.195 97.4311C170.41 97.3544 168.578 97.38 167.139 97.4567ZM191.95 101.397C192.421 101.602 192.944 101.934 193.154 102.165C193.468 102.548 193.389 102.6 192.29 102.6H191.086V104.493V106.412L192.342 106.489L193.572 106.565L192.656 107.128C191.845 107.666 191.4 107.717 188.547 107.717C185.538 107.717 185.328 107.691 184.621 107.077L183.889 106.463L185.014 106.437H186.113V104.518V102.6H185.066C184.491 102.6 184.02 102.497 184.02 102.369C184.02 102.088 185.04 101.423 185.721 101.243C186.872 100.962 191.138 101.064 191.95 101.397ZM172.949 101.96L173.682 102.574L172.452 102.6H171.195V104.518V106.437H172.425H173.655L173.132 106.975C172.425 107.64 171.038 107.947 168.709 107.973C166.511 107.973 165.15 107.64 164.521 106.949C164.05 106.437 164.077 106.437 165.123 106.437H166.223V104.518V102.6H165.123L163.998 102.574L164.731 101.96C165.438 101.346 165.621 101.32 168.84 101.32C172.059 101.32 172.242 101.346 172.949 101.96Z" fill="#DD7B00"/>
<path d="M117.543 102.216V104.135H119.506H121.469V102.216V100.297H119.506H117.543V102.216Z" fill="#DD7B00"/>
<path d="M234.531 102.983V104.902H236.494H238.457V102.983V101.064H236.494H234.531V102.983Z" fill="#DD7B00"/>
<path d="M117.543 108.663L117.569 110.659L124.74 114.676L131.911 118.667L132.854 117.004C133.377 116.109 133.77 115.316 133.717 115.29C133.691 115.239 130.891 113.678 127.567 111.785C121.547 108.433 121.469 108.356 121.469 107.538V106.693H119.506H117.543V108.663Z" fill="#DD7B00"/>
<path d="M234.479 108.024C234.427 108.459 233.144 109.303 228.983 111.657L223.539 114.727L224.35 116.135C224.795 116.928 225.266 117.67 225.371 117.798C225.502 117.926 228.433 116.416 232.019 114.369L238.457 110.736V109.098V107.461H236.52C234.714 107.461 234.557 107.512 234.479 108.024Z" fill="#DD7B00"/>
</g>
<defs>
<clipPath id="clip0_585_1761">
<rect width="134" height="131" fill="white" transform="translate(111)"/>
</clipPath>
</defs>
</svg>
