<svg width="31" height="26" viewBox="0 0 31 26" fill="none" xmlns="http://www.w3.org/2000/svg">
<path d="M3.63086 12.0215C1.53906 12.0215 0.486328 10.9961 0.486328 8.89062V3.66797C0.486328 1.57617 1.53906 0.564453 3.63086 0.564453H26.8867C28.9785 0.564453 30.0312 1.57617 30.0312 3.66797V8.89062C30.0312 10.9961 28.9785 12.0215 26.8867 12.0215H3.63086ZM3.63086 25.7344C1.53906 25.7344 0.486328 24.7227 0.486328 22.6172V17.3809C0.486328 15.3027 1.53906 14.2773 3.63086 14.2773H26.8867C28.9785 14.2773 30.0312 15.3027 30.0312 17.3809V22.6172C30.0312 24.7227 28.9785 25.7344 26.8867 25.7344H3.63086Z" fill="currentColor"/>
</svg>
